<mxfile host="app.diagrams.net" agent="Mozilla/5.0 (Windows NT 10.0; Win64; x64) AppleWebKit/537.36 (KHTML, like Gecko) Chrome/139.0.0.0 Safari/537.36" version="28.2.3" pages="4">
  <diagram name="Trang-1" id="rqQwPjqqYaCCG_WF7YJK">
    <mxGraphModel dx="1236" dy="711" grid="1" gridSize="10" guides="1" tooltips="1" connect="1" arrows="1" fold="1" page="1" pageScale="1" pageWidth="827" pageHeight="1169" math="0" shadow="0">
      <root>
        <mxCell id="0" />
        <mxCell id="1" parent="0" />
        <mxCell id="GCU-d1Rd4mgQuuMw-c8p-2" style="edgeStyle=orthogonalEdgeStyle;rounded=0;orthogonalLoop=1;jettySize=auto;html=1;entryX=0.5;entryY=0;entryDx=0;entryDy=0;" parent="1" source="GCU-d1Rd4mgQuuMw-c8p-1" target="GCU-d1Rd4mgQuuMw-c8p-6" edge="1">
          <mxGeometry relative="1" as="geometry">
            <mxPoint x="400" y="175" as="targetPoint" />
          </mxGeometry>
        </mxCell>
        <mxCell id="GCU-d1Rd4mgQuuMw-c8p-1" value="bắt đầu" style="ellipse;whiteSpace=wrap;html=1;" parent="1" vertex="1">
          <mxGeometry x="370" y="60" width="60" height="30" as="geometry" />
        </mxCell>
        <mxCell id="GCU-d1Rd4mgQuuMw-c8p-4" value="nhập các hệ số a,b,c" style="shape=parallelogram;perimeter=parallelogramPerimeter;whiteSpace=wrap;html=1;fixedSize=1;" parent="1" vertex="1">
          <mxGeometry x="325" y="120" width="145" height="40" as="geometry" />
        </mxCell>
        <mxCell id="GCU-d1Rd4mgQuuMw-c8p-9" style="edgeStyle=orthogonalEdgeStyle;rounded=0;orthogonalLoop=1;jettySize=auto;html=1;" parent="1" source="GCU-d1Rd4mgQuuMw-c8p-8" edge="1">
          <mxGeometry relative="1" as="geometry">
            <mxPoint x="490" y="390" as="targetPoint" />
            <Array as="points">
              <mxPoint x="490" y="350" />
            </Array>
          </mxGeometry>
        </mxCell>
        <mxCell id="GCU-d1Rd4mgQuuMw-c8p-8" value="delta&amp;gt;=0" style="rhombus;whiteSpace=wrap;html=1;" parent="1" vertex="1">
          <mxGeometry x="360" y="310" width="80" height="80" as="geometry" />
        </mxCell>
        <mxCell id="GCU-d1Rd4mgQuuMw-c8p-10" value="Đ" style="text;html=1;align=center;verticalAlign=middle;resizable=0;points=[];autosize=1;strokeColor=none;fillColor=none;" parent="1" vertex="1">
          <mxGeometry x="450" y="320" width="30" height="30" as="geometry" />
        </mxCell>
        <mxCell id="GCU-d1Rd4mgQuuMw-c8p-14" value="S" style="text;html=1;align=center;verticalAlign=middle;resizable=0;points=[];autosize=1;strokeColor=none;fillColor=none;" parent="1" vertex="1">
          <mxGeometry x="325" y="320" width="30" height="30" as="geometry" />
        </mxCell>
        <mxCell id="GCU-d1Rd4mgQuuMw-c8p-18" value="" style="endArrow=classic;html=1;rounded=0;exitX=0;exitY=0.5;exitDx=0;exitDy=0;" parent="1" source="GCU-d1Rd4mgQuuMw-c8p-8" edge="1">
          <mxGeometry width="50" height="50" relative="1" as="geometry">
            <mxPoint x="360" y="450" as="sourcePoint" />
            <mxPoint x="310" y="390" as="targetPoint" />
            <Array as="points">
              <mxPoint x="310" y="350" />
              <mxPoint x="310" y="380" />
            </Array>
          </mxGeometry>
        </mxCell>
        <mxCell id="GCU-d1Rd4mgQuuMw-c8p-22" style="edgeStyle=orthogonalEdgeStyle;rounded=0;orthogonalLoop=1;jettySize=auto;html=1;exitX=0.5;exitY=1;exitDx=0;exitDy=0;entryX=0.5;entryY=0;entryDx=0;entryDy=0;" parent="1" source="GCU-d1Rd4mgQuuMw-c8p-6" target="GCU-d1Rd4mgQuuMw-c8p-8" edge="1">
          <mxGeometry relative="1" as="geometry" />
        </mxCell>
        <mxCell id="GCU-d1Rd4mgQuuMw-c8p-6" value="tính delta= b*b-4*a*c" style="rounded=0;whiteSpace=wrap;html=1;" parent="1" vertex="1">
          <mxGeometry x="340" y="190" width="120" height="40" as="geometry" />
        </mxCell>
        <mxCell id="GCU-d1Rd4mgQuuMw-c8p-20" style="edgeStyle=orthogonalEdgeStyle;rounded=0;orthogonalLoop=1;jettySize=auto;html=1;exitX=0.5;exitY=1;exitDx=0;exitDy=0;" parent="1" source="GCU-d1Rd4mgQuuMw-c8p-1" edge="1">
          <mxGeometry relative="1" as="geometry">
            <mxPoint x="400" y="120" as="targetPoint" />
          </mxGeometry>
        </mxCell>
      </root>
    </mxGraphModel>
  </diagram>
  <diagram id="f4qCzBKXUGZjzUO65W3k" name="Trang-2">
    <mxGraphModel dx="1824" dy="1416" grid="0" gridSize="10" guides="1" tooltips="1" connect="1" arrows="1" fold="1" page="0" pageScale="1" pageWidth="827" pageHeight="1169" math="0" shadow="0">
      <root>
        <mxCell id="0" />
        <mxCell id="1" parent="0" />
        <mxCell id="zAfzYL-5Ezc-Rz5M8Vut-3" value="HỆ THỐNG QUẢN LÝ BÁN HÀNG ONLINE" style="text;html=1;align=center;verticalAlign=middle;resizable=0;points=[];autosize=1;strokeColor=none;fillColor=none;fontSize=16;" vertex="1" parent="1">
          <mxGeometry x="-43.5" y="-118.5" width="329" height="31" as="geometry" />
        </mxCell>
        <mxCell id="Ij3h6fWs9hPk6k5ozJ7v-4" style="edgeStyle=none;curved=1;rounded=0;orthogonalLoop=1;jettySize=auto;html=1;exitX=1;exitY=0.5;exitDx=0;exitDy=0;fontSize=12;startSize=8;endSize=8;" edge="1" parent="1" source="Ij3h6fWs9hPk6k5ozJ7v-1">
          <mxGeometry relative="1" as="geometry">
            <mxPoint x="190.57135881696445" y="76.85714285714289" as="targetPoint" />
          </mxGeometry>
        </mxCell>
        <mxCell id="v9rU1KDg-JwRZdcLH0tP-10" style="edgeStyle=none;curved=1;rounded=0;orthogonalLoop=1;jettySize=auto;html=1;exitX=0.5;exitY=1;exitDx=0;exitDy=0;fontSize=12;startSize=8;endSize=8;" edge="1" parent="1" source="Ij3h6fWs9hPk6k5ozJ7v-1">
          <mxGeometry relative="1" as="geometry">
            <mxPoint x="38.85714285714289" y="125.42857142857156" as="targetPoint" />
          </mxGeometry>
        </mxCell>
        <mxCell id="Ij3h6fWs9hPk6k5ozJ7v-1" value="Người dùng nhập thông tin mua&amp;nbsp;" style="ellipse;whiteSpace=wrap;html=1;" vertex="1" parent="1">
          <mxGeometry x="-44" y="30" width="165" height="95" as="geometry" />
        </mxCell>
        <mxCell id="Ij3h6fWs9hPk6k5ozJ7v-2" value="" style="endArrow=classic;html=1;rounded=0;fontSize=12;startSize=8;endSize=8;curved=1;" edge="1" parent="1">
          <mxGeometry width="50" height="50" relative="1" as="geometry">
            <mxPoint x="110" y="54" as="sourcePoint" />
            <mxPoint x="183" as="targetPoint" />
          </mxGeometry>
        </mxCell>
        <mxCell id="Ij3h6fWs9hPk6k5ozJ7v-5" value="chọn sản phẩm" style="text;html=1;align=center;verticalAlign=middle;resizable=0;points=[];autosize=1;strokeColor=none;fillColor=none;fontSize=16;" vertex="1" parent="1">
          <mxGeometry x="183" y="-19" width="127" height="31" as="geometry" />
        </mxCell>
        <mxCell id="Ij3h6fWs9hPk6k5ozJ7v-6" value="nhập địa chỉ" style="text;html=1;align=center;verticalAlign=middle;resizable=0;points=[];autosize=1;strokeColor=none;fillColor=none;fontSize=16;" vertex="1" parent="1">
          <mxGeometry x="183" y="62" width="104" height="31" as="geometry" />
        </mxCell>
        <mxCell id="Ij3h6fWs9hPk6k5ozJ7v-7" value="" style="endArrow=classic;html=1;rounded=0;fontSize=12;startSize=8;endSize=8;curved=1;exitX=0.923;exitY=0.746;exitDx=0;exitDy=0;exitPerimeter=0;" edge="1" parent="1" source="Ij3h6fWs9hPk6k5ozJ7v-1">
          <mxGeometry width="50" height="50" relative="1" as="geometry">
            <mxPoint x="107" y="113" as="sourcePoint" />
            <mxPoint x="188" y="151" as="targetPoint" />
          </mxGeometry>
        </mxCell>
        <mxCell id="Ij3h6fWs9hPk6k5ozJ7v-8" value="chọn thanh toán" style="text;html=1;align=center;verticalAlign=middle;resizable=0;points=[];autosize=1;strokeColor=none;fillColor=none;fontSize=16;" vertex="1" parent="1">
          <mxGeometry x="183" y="134" width="133" height="31" as="geometry" />
        </mxCell>
        <mxCell id="Ij3h6fWs9hPk6k5ozJ7v-10" value="" style="shape=flexArrow;endArrow=classic;html=1;rounded=0;fontSize=12;startSize=8;endSize=8;curved=1;" edge="1" parent="1">
          <mxGeometry width="50" height="50" relative="1" as="geometry">
            <mxPoint x="34" y="125" as="sourcePoint" />
            <mxPoint x="30" y="283" as="targetPoint" />
          </mxGeometry>
        </mxCell>
        <mxCell id="Ij3h6fWs9hPk6k5ozJ7v-13" value="" style="endArrow=classic;html=1;rounded=0;fontSize=12;startSize=8;endSize=8;curved=1;" edge="1" parent="1">
          <mxGeometry width="50" height="50" relative="1" as="geometry">
            <mxPoint x="93" y="304" as="sourcePoint" />
            <mxPoint x="169" y="257" as="targetPoint" />
          </mxGeometry>
        </mxCell>
        <mxCell id="Ij3h6fWs9hPk6k5ozJ7v-14" value="Tính tiền" style="text;html=1;align=center;verticalAlign=middle;resizable=0;points=[];autosize=1;strokeColor=none;fillColor=none;fontSize=16;" vertex="1" parent="1">
          <mxGeometry x="161.5" y="238.5" width="80" height="31" as="geometry" />
        </mxCell>
        <mxCell id="Ij3h6fWs9hPk6k5ozJ7v-15" value="" style="endArrow=classic;html=1;rounded=0;fontSize=12;startSize=8;endSize=8;curved=1;" edge="1" parent="1">
          <mxGeometry width="50" height="50" relative="1" as="geometry">
            <mxPoint x="96" y="316" as="sourcePoint" />
            <mxPoint x="175" y="316" as="targetPoint" />
          </mxGeometry>
        </mxCell>
        <mxCell id="Ij3h6fWs9hPk6k5ozJ7v-16" value="trừ kho&amp;nbsp;" style="text;html=1;align=center;verticalAlign=middle;resizable=0;points=[];autosize=1;strokeColor=none;fillColor=none;fontSize=16;" vertex="1" parent="1">
          <mxGeometry x="175" y="300" width="73" height="31" as="geometry" />
        </mxCell>
        <mxCell id="Ij3h6fWs9hPk6k5ozJ7v-17" value="" style="endArrow=classic;html=1;rounded=0;fontSize=12;startSize=8;endSize=8;curved=1;exitX=1;exitY=0.75;exitDx=0;exitDy=0;" edge="1" parent="1" source="v9rU1KDg-JwRZdcLH0tP-1">
          <mxGeometry width="50" height="50" relative="1" as="geometry">
            <mxPoint x="96.99999999999977" y="332.25" as="sourcePoint" />
            <mxPoint x="171" y="374" as="targetPoint" />
          </mxGeometry>
        </mxCell>
        <mxCell id="Ij3h6fWs9hPk6k5ozJ7v-18" value="xác nhận đơn" style="text;html=1;align=center;verticalAlign=middle;resizable=0;points=[];autosize=1;strokeColor=none;fillColor=none;fontSize=16;" vertex="1" parent="1">
          <mxGeometry x="165" y="362" width="116" height="31" as="geometry" />
        </mxCell>
        <mxCell id="Ij3h6fWs9hPk6k5ozJ7v-19" value="" style="shape=flexArrow;endArrow=classic;html=1;rounded=0;fontSize=12;startSize=8;endSize=8;curved=1;" edge="1" parent="1">
          <mxGeometry width="50" height="50" relative="1" as="geometry">
            <mxPoint x="29.29000000000002" y="358" as="sourcePoint" />
            <mxPoint x="29.29000000000002" y="485" as="targetPoint" />
          </mxGeometry>
        </mxCell>
        <mxCell id="Ij3h6fWs9hPk6k5ozJ7v-20" style="edgeStyle=none;curved=1;rounded=0;orthogonalLoop=1;jettySize=auto;html=1;entryX=0.5;entryY=0;entryDx=0;entryDy=0;fontSize=12;startSize=8;endSize=8;" edge="1" parent="1">
          <mxGeometry relative="1" as="geometry">
            <mxPoint x="32.5" y="288" as="sourcePoint" />
            <mxPoint x="32.5" y="288" as="targetPoint" />
          </mxGeometry>
        </mxCell>
        <mxCell id="v9rU1KDg-JwRZdcLH0tP-2" value="" style="edgeStyle=none;curved=1;rounded=0;orthogonalLoop=1;jettySize=auto;html=1;fontSize=12;startSize=8;endSize=8;" edge="1" parent="1" source="v9rU1KDg-JwRZdcLH0tP-1" target="Ij3h6fWs9hPk6k5ozJ7v-16">
          <mxGeometry relative="1" as="geometry" />
        </mxCell>
        <mxCell id="v9rU1KDg-JwRZdcLH0tP-1" value="&lt;br&gt;Tính toán, xác minh, xử lý logic đơn hàng&lt;div&gt;&lt;br/&gt;&lt;/div&gt;" style="shape=parallelogram;perimeter=parallelogramPerimeter;whiteSpace=wrap;html=1;fixedSize=1;" vertex="1" parent="1">
          <mxGeometry x="-53" y="288" width="166" height="66" as="geometry" />
        </mxCell>
        <mxCell id="v9rU1KDg-JwRZdcLH0tP-4" style="edgeStyle=none;curved=1;rounded=0;orthogonalLoop=1;jettySize=auto;html=1;exitX=1;exitY=0.25;exitDx=0;exitDy=0;fontSize=12;startSize=8;endSize=8;" edge="1" parent="1" source="v9rU1KDg-JwRZdcLH0tP-3">
          <mxGeometry relative="1" as="geometry">
            <mxPoint x="171.14277866908492" y="477.99998256138406" as="targetPoint" />
          </mxGeometry>
        </mxCell>
        <mxCell id="v9rU1KDg-JwRZdcLH0tP-5" style="edgeStyle=none;curved=1;rounded=0;orthogonalLoop=1;jettySize=auto;html=1;exitX=1;exitY=0.75;exitDx=0;exitDy=0;fontSize=12;startSize=8;endSize=8;" edge="1" parent="1" source="v9rU1KDg-JwRZdcLH0tP-3">
          <mxGeometry relative="1" as="geometry">
            <mxPoint x="174.5713849748886" y="560.2857491629466" as="targetPoint" />
          </mxGeometry>
        </mxCell>
        <mxCell id="v9rU1KDg-JwRZdcLH0tP-3" value="&#xa;Ghi dữ liệu vào cơ sở dữ liệu&#xa;&#xa;" style="rounded=0;whiteSpace=wrap;html=1;" vertex="1" parent="1">
          <mxGeometry x="-38" y="483" width="136" height="75" as="geometry" />
        </mxCell>
        <mxCell id="v9rU1KDg-JwRZdcLH0tP-6" value="lưu thông tin đơn hàng" style="text;html=1;align=center;verticalAlign=middle;resizable=0;points=[];autosize=1;strokeColor=none;fillColor=none;fontSize=16;" vertex="1" parent="1">
          <mxGeometry x="168" y="458" width="180" height="31" as="geometry" />
        </mxCell>
        <mxCell id="v9rU1KDg-JwRZdcLH0tP-7" value="lưu thông tin khách hàng" style="text;html=1;align=center;verticalAlign=middle;resizable=0;points=[];autosize=1;strokeColor=none;fillColor=none;fontSize=16;" vertex="1" parent="1">
          <mxGeometry x="173" y="550" width="194" height="31" as="geometry" />
        </mxCell>
        <mxCell id="v9rU1KDg-JwRZdcLH0tP-15" style="edgeStyle=none;curved=1;rounded=0;orthogonalLoop=1;jettySize=auto;html=1;exitX=1;exitY=0;exitDx=0;exitDy=0;fontSize=12;startSize=8;endSize=8;" edge="1" parent="1" source="v9rU1KDg-JwRZdcLH0tP-11">
          <mxGeometry relative="1" as="geometry">
            <mxPoint x="173.42850167410734" y="676.8571428571431" as="targetPoint" />
          </mxGeometry>
        </mxCell>
        <mxCell id="v9rU1KDg-JwRZdcLH0tP-17" style="edgeStyle=none;curved=1;rounded=0;orthogonalLoop=1;jettySize=auto;html=1;exitX=1;exitY=1;exitDx=0;exitDy=0;fontSize=12;startSize=8;endSize=8;" edge="1" parent="1" source="v9rU1KDg-JwRZdcLH0tP-11">
          <mxGeometry relative="1" as="geometry">
            <mxPoint x="171" y="788" as="targetPoint" />
          </mxGeometry>
        </mxCell>
        <mxCell id="v9rU1KDg-JwRZdcLH0tP-11" value="&#xa;Hiển thị thông tin cho người dùng&#xa;&#xa;" style="rhombus;whiteSpace=wrap;html=1;rounded=0;" vertex="1" parent="1">
          <mxGeometry x="-32.5" y="662" width="125" height="141" as="geometry" />
        </mxCell>
        <mxCell id="v9rU1KDg-JwRZdcLH0tP-14" value="" style="shape=flexArrow;endArrow=classic;html=1;rounded=0;fontSize=12;startSize=8;endSize=8;curved=1;entryX=0.5;entryY=0;entryDx=0;entryDy=0;" edge="1" parent="1" target="v9rU1KDg-JwRZdcLH0tP-11">
          <mxGeometry width="50" height="50" relative="1" as="geometry">
            <mxPoint x="28" y="561" as="sourcePoint" />
            <mxPoint x="33" y="663" as="targetPoint" />
          </mxGeometry>
        </mxCell>
        <mxCell id="v9rU1KDg-JwRZdcLH0tP-16" value="Gửi thông báo xác nhận" style="text;html=1;align=center;verticalAlign=middle;resizable=0;points=[];autosize=1;strokeColor=none;fillColor=none;fontSize=16;" vertex="1" parent="1">
          <mxGeometry x="177" y="662" width="190" height="31" as="geometry" />
        </mxCell>
        <mxCell id="v9rU1KDg-JwRZdcLH0tP-18" value="xác nhận đơn" style="text;html=1;align=center;verticalAlign=middle;resizable=0;points=[];autosize=1;strokeColor=none;fillColor=none;fontSize=16;" vertex="1" parent="1">
          <mxGeometry x="181" y="779" width="116" height="31" as="geometry" />
        </mxCell>
      </root>
    </mxGraphModel>
  </diagram>
  <diagram id="p9TmYJj9_Y9RW-TF2j5E" name="Trang-3">
    <mxGraphModel grid="0" page="0" gridSize="10" guides="1" tooltips="1" connect="1" arrows="1" fold="1" pageScale="1" pageWidth="827" pageHeight="1169" math="0" shadow="0">
      <root>
        <mxCell id="0" />
        <mxCell id="1" parent="0" />
        <mxCell id="caGx5qNCMckXcavGolHU-4" style="edgeStyle=none;curved=1;rounded=0;orthogonalLoop=1;jettySize=auto;html=1;fontSize=12;startSize=8;endSize=8;" edge="1" parent="1" source="caGx5qNCMckXcavGolHU-1">
          <mxGeometry relative="1" as="geometry">
            <mxPoint x="190" y="115" as="targetPoint" />
            <Array as="points">
              <mxPoint x="190" y="96" />
            </Array>
          </mxGeometry>
        </mxCell>
        <mxCell id="caGx5qNCMckXcavGolHU-1" value="Bắt đầu" style="ellipse;whiteSpace=wrap;html=1;" vertex="1" parent="1">
          <mxGeometry x="130" y="-18" width="120" height="80" as="geometry" />
        </mxCell>
        <mxCell id="caGx5qNCMckXcavGolHU-7" style="edgeStyle=none;curved=1;rounded=0;orthogonalLoop=1;jettySize=auto;html=1;fontSize=12;startSize=8;endSize=8;" edge="1" parent="1" source="caGx5qNCMckXcavGolHU-6">
          <mxGeometry relative="1" as="geometry">
            <mxPoint x="190" y="205.20001220703125" as="targetPoint" />
          </mxGeometry>
        </mxCell>
        <mxCell id="dHHh7Kcrg14KwPWF-CaE-5" style="edgeStyle=none;curved=1;rounded=0;orthogonalLoop=1;jettySize=auto;html=1;fontSize=12;startSize=8;endSize=8;" edge="1" parent="1" source="caGx5qNCMckXcavGolHU-6">
          <mxGeometry relative="1" as="geometry">
            <mxPoint x="265.40006510416663" y="132" as="targetPoint" />
          </mxGeometry>
        </mxCell>
        <mxCell id="caGx5qNCMckXcavGolHU-6" value="Nhập điểm (input)" style="shape=parallelogram;perimeter=parallelogramPerimeter;whiteSpace=wrap;html=1;fixedSize=1;" vertex="1" parent="1">
          <mxGeometry x="130" y="108" width="118" height="48" as="geometry" />
        </mxCell>
        <mxCell id="caGx5qNCMckXcavGolHU-10" value="" style="edgeStyle=none;curved=1;rounded=0;orthogonalLoop=1;jettySize=auto;html=1;fontSize=12;startSize=8;endSize=8;" edge="1" parent="1" source="caGx5qNCMckXcavGolHU-8" target="caGx5qNCMckXcavGolHU-9">
          <mxGeometry relative="1" as="geometry" />
        </mxCell>
        <mxCell id="caGx5qNCMckXcavGolHU-8" value="Xử lý: tính điểm TB" style="rounded=0;whiteSpace=wrap;html=1;" vertex="1" parent="1">
          <mxGeometry x="130" y="204" width="120" height="60" as="geometry" />
        </mxCell>
        <mxCell id="caGx5qNCMckXcavGolHU-12" style="edgeStyle=none;curved=1;rounded=0;orthogonalLoop=1;jettySize=auto;html=1;exitX=0;exitY=1;exitDx=0;exitDy=0;fontSize=12;startSize=8;endSize=8;" edge="1" parent="1" source="caGx5qNCMckXcavGolHU-9">
          <mxGeometry relative="1" as="geometry">
            <mxPoint x="105.20001220703125" y="414" as="targetPoint" />
          </mxGeometry>
        </mxCell>
        <mxCell id="caGx5qNCMckXcavGolHU-14" style="edgeStyle=none;curved=1;rounded=0;orthogonalLoop=1;jettySize=auto;html=1;exitX=1;exitY=1;exitDx=0;exitDy=0;fontSize=12;startSize=8;endSize=8;" edge="1" parent="1" source="caGx5qNCMckXcavGolHU-9">
          <mxGeometry relative="1" as="geometry">
            <mxPoint x="262.00006103515625" y="410" as="targetPoint" />
          </mxGeometry>
        </mxCell>
        <mxCell id="dHHh7Kcrg14KwPWF-CaE-7" style="edgeStyle=none;curved=1;rounded=0;orthogonalLoop=1;jettySize=auto;html=1;fontSize=12;startSize=8;endSize=8;" edge="1" parent="1" source="caGx5qNCMckXcavGolHU-9">
          <mxGeometry relative="1" as="geometry">
            <mxPoint x="269.66666666666663" y="334.39998372395826" as="targetPoint" />
          </mxGeometry>
        </mxCell>
        <mxCell id="caGx5qNCMckXcavGolHU-9" value="Điểm hợp lệ&lt;div&gt;(0-10)&lt;/div&gt;" style="rhombus;whiteSpace=wrap;html=1;rounded=0;" vertex="1" parent="1">
          <mxGeometry x="150" y="305" width="80" height="80" as="geometry" />
        </mxCell>
        <mxCell id="caGx5qNCMckXcavGolHU-13" value="s" style="text;html=1;align=center;verticalAlign=middle;resizable=0;points=[];autosize=1;strokeColor=none;fillColor=none;fontSize=16;" vertex="1" parent="1">
          <mxGeometry x="111.5" y="357.5" width="26" height="31" as="geometry" />
        </mxCell>
        <mxCell id="caGx5qNCMckXcavGolHU-15" value="Đ" style="text;html=1;align=center;verticalAlign=middle;resizable=0;points=[];autosize=1;strokeColor=none;fillColor=none;fontSize=16;" vertex="1" parent="1">
          <mxGeometry x="224.5" y="359.5" width="30" height="31" as="geometry" />
        </mxCell>
        <mxCell id="xJoeTZJDI4ANZPSLTL7J-4" style="edgeStyle=none;curved=1;rounded=0;orthogonalLoop=1;jettySize=auto;html=1;exitX=0.5;exitY=1;exitDx=0;exitDy=0;fontSize=12;startSize=8;endSize=8;" edge="1" parent="1" source="xJoeTZJDI4ANZPSLTL7J-1">
          <mxGeometry relative="1" as="geometry">
            <mxPoint x="174.800048828125" y="510" as="targetPoint" />
          </mxGeometry>
        </mxCell>
        <mxCell id="xJoeTZJDI4ANZPSLTL7J-1" value="Báo lỗi nhập&amp;nbsp;" style="rounded=0;whiteSpace=wrap;html=1;" vertex="1" parent="1">
          <mxGeometry x="63" y="415" width="91" height="38" as="geometry" />
        </mxCell>
        <mxCell id="xJoeTZJDI4ANZPSLTL7J-5" style="edgeStyle=none;curved=1;rounded=0;orthogonalLoop=1;jettySize=auto;html=1;exitX=0.5;exitY=1;exitDx=0;exitDy=0;fontSize=12;startSize=8;endSize=8;" edge="1" parent="1" source="xJoeTZJDI4ANZPSLTL7J-2">
          <mxGeometry relative="1" as="geometry">
            <mxPoint x="198.00006103515625" y="510" as="targetPoint" />
          </mxGeometry>
        </mxCell>
        <mxCell id="xJoeTZJDI4ANZPSLTL7J-2" value="Lưu vào cơ sở dữ liệu&amp;nbsp;" style="rounded=0;whiteSpace=wrap;html=1;" vertex="1" parent="1">
          <mxGeometry x="213" y="415" width="97" height="38" as="geometry" />
        </mxCell>
        <mxCell id="xJoeTZJDI4ANZPSLTL7J-8" style="edgeStyle=none;curved=1;rounded=0;orthogonalLoop=1;jettySize=auto;html=1;exitX=0.5;exitY=1;exitDx=0;exitDy=0;entryX=0.5;entryY=0;entryDx=0;entryDy=0;fontSize=12;startSize=8;endSize=8;" edge="1" parent="1" source="xJoeTZJDI4ANZPSLTL7J-6" target="xJoeTZJDI4ANZPSLTL7J-7">
          <mxGeometry relative="1" as="geometry" />
        </mxCell>
        <mxCell id="dHHh7Kcrg14KwPWF-CaE-9" style="edgeStyle=none;curved=1;rounded=0;orthogonalLoop=1;jettySize=auto;html=1;exitX=1;exitY=0.5;exitDx=0;exitDy=0;fontSize=12;startSize=8;endSize=8;" edge="1" parent="1" source="xJoeTZJDI4ANZPSLTL7J-6">
          <mxGeometry relative="1" as="geometry">
            <mxPoint x="271.80000813802087" y="541.3333333333333" as="targetPoint" />
          </mxGeometry>
        </mxCell>
        <mxCell id="xJoeTZJDI4ANZPSLTL7J-6" value="Hiển thị kết&amp;nbsp;&amp;nbsp;" style="shape=parallelogram;perimeter=parallelogramPerimeter;whiteSpace=wrap;html=1;fixedSize=1;" vertex="1" parent="1">
          <mxGeometry x="130" y="511" width="120" height="60" as="geometry" />
        </mxCell>
        <mxCell id="xJoeTZJDI4ANZPSLTL7J-7" value="Kết thúc" style="ellipse;whiteSpace=wrap;html=1;" vertex="1" parent="1">
          <mxGeometry x="130" y="602" width="120" height="80" as="geometry" />
        </mxCell>
        <mxCell id="dHHh7Kcrg14KwPWF-CaE-6" value="(nhập-bàn phím)" style="text;html=1;align=center;verticalAlign=middle;resizable=0;points=[];autosize=1;strokeColor=none;fillColor=none;fontSize=16;" vertex="1" parent="1">
          <mxGeometry x="260" y="116.5" width="136" height="31" as="geometry" />
        </mxCell>
        <mxCell id="dHHh7Kcrg14KwPWF-CaE-8" value="(phần mềm quản lý điểm, hệ thống quản lý học sinh)" style="text;html=1;align=center;verticalAlign=middle;resizable=0;points=[];autosize=1;strokeColor=none;fillColor=none;fontSize=16;" vertex="1" parent="1">
          <mxGeometry x="264" y="314" width="391" height="31" as="geometry" />
        </mxCell>
        <mxCell id="dHHh7Kcrg14KwPWF-CaE-10" value="(thiết bị xuất, máy in)" style="text;html=1;align=center;verticalAlign=middle;resizable=0;points=[];autosize=1;strokeColor=none;fillColor=none;fontSize=16;" vertex="1" parent="1">
          <mxGeometry x="269" y="525.5" width="167" height="31" as="geometry" />
        </mxCell>
      </root>
    </mxGraphModel>
  </diagram>
  <diagram id="ZQU1EK6kMR2cn3YSHuFL" name="Trang-4">
    <mxGraphModel grid="0" page="0" gridSize="10" guides="1" tooltips="1" connect="1" arrows="1" fold="1" pageScale="1" pageWidth="827" pageHeight="1169" math="0" shadow="0">
      <root>
        <mxCell id="0" />
        <mxCell id="1" parent="0" />
        <mxCell id="AeF4JRrVKu4U9kHUNlpQ-3" style="edgeStyle=none;curved=1;rounded=0;orthogonalLoop=1;jettySize=auto;html=1;fontSize=12;startSize=8;endSize=8;" edge="1" parent="1" source="AeF4JRrVKu4U9kHUNlpQ-1" target="AeF4JRrVKu4U9kHUNlpQ-2">
          <mxGeometry relative="1" as="geometry" />
        </mxCell>
        <mxCell id="AeF4JRrVKu4U9kHUNlpQ-1" value="Bắt đầu" style="ellipse;whiteSpace=wrap;html=1;" vertex="1" parent="1">
          <mxGeometry x="160" y="-23" width="120" height="80" as="geometry" />
        </mxCell>
        <mxCell id="AeF4JRrVKu4U9kHUNlpQ-5" value="" style="edgeStyle=none;curved=1;rounded=0;orthogonalLoop=1;jettySize=auto;html=1;fontSize=12;startSize=8;endSize=8;" edge="1" parent="1" source="AeF4JRrVKu4U9kHUNlpQ-2" target="AeF4JRrVKu4U9kHUNlpQ-4">
          <mxGeometry relative="1" as="geometry" />
        </mxCell>
        <mxCell id="AeF4JRrVKu4U9kHUNlpQ-2" value="Nhập thông tin chuyến bay&lt;div&gt;(input: bàn phím , chuột)&lt;/div&gt;" style="shape=parallelogram;perimeter=parallelogramPerimeter;whiteSpace=wrap;html=1;fixedSize=1;" vertex="1" parent="1">
          <mxGeometry x="160" y="108" width="120" height="61" as="geometry" />
        </mxCell>
        <mxCell id="AeF4JRrVKu4U9kHUNlpQ-7" value="" style="edgeStyle=none;curved=1;rounded=0;orthogonalLoop=1;jettySize=auto;html=1;fontSize=12;startSize=8;endSize=8;" edge="1" parent="1" source="AeF4JRrVKu4U9kHUNlpQ-4" target="AeF4JRrVKu4U9kHUNlpQ-6">
          <mxGeometry relative="1" as="geometry" />
        </mxCell>
        <mxCell id="AeF4JRrVKu4U9kHUNlpQ-4" value="Hệ thống kiểm tra dữ&amp;nbsp;&lt;div&gt;(phần mềm quản lý đặt vé, CSDL)&lt;/div&gt;" style="whiteSpace=wrap;html=1;" vertex="1" parent="1">
          <mxGeometry x="160" y="209" width="120" height="60" as="geometry" />
        </mxCell>
        <mxCell id="AeF4JRrVKu4U9kHUNlpQ-8" style="edgeStyle=none;curved=1;rounded=0;orthogonalLoop=1;jettySize=auto;html=1;fontSize=12;startSize=8;endSize=8;" edge="1" parent="1" source="AeF4JRrVKu4U9kHUNlpQ-6">
          <mxGeometry relative="1" as="geometry">
            <mxPoint x="76.60000610351562" y="431.60003662109375" as="targetPoint" />
            <Array as="points">
              <mxPoint x="132" y="403" />
            </Array>
          </mxGeometry>
        </mxCell>
        <mxCell id="AeF4JRrVKu4U9kHUNlpQ-9" style="edgeStyle=none;curved=1;rounded=0;orthogonalLoop=1;jettySize=auto;html=1;exitX=1;exitY=1;exitDx=0;exitDy=0;fontSize=12;startSize=8;endSize=8;" edge="1" parent="1" source="AeF4JRrVKu4U9kHUNlpQ-6">
          <mxGeometry relative="1" as="geometry">
            <mxPoint x="360.5999755859375" y="427.60003662109375" as="targetPoint" />
          </mxGeometry>
        </mxCell>
        <mxCell id="AeF4JRrVKu4U9kHUNlpQ-6" value="tìm ra có chuyến bay phù hợp hay không" style="rhombus;whiteSpace=wrap;html=1;" vertex="1" parent="1">
          <mxGeometry x="155" y="305" width="133" height="91" as="geometry" />
        </mxCell>
        <mxCell id="AeF4JRrVKu4U9kHUNlpQ-10" value="có" style="text;html=1;align=center;verticalAlign=middle;resizable=0;points=[];autosize=1;strokeColor=none;fillColor=none;fontSize=16;" vertex="1" parent="1">
          <mxGeometry x="106.5" y="376.5" width="35" height="31" as="geometry" />
        </mxCell>
        <mxCell id="AeF4JRrVKu4U9kHUNlpQ-11" value="không" style="text;html=1;align=center;verticalAlign=middle;resizable=0;points=[];autosize=1;strokeColor=none;fillColor=none;fontSize=16;" vertex="1" parent="1">
          <mxGeometry x="302" y="365" width="62" height="31" as="geometry" />
        </mxCell>
        <mxCell id="AeF4JRrVKu4U9kHUNlpQ-14" style="edgeStyle=none;curved=1;rounded=0;orthogonalLoop=1;jettySize=auto;html=1;fontSize=12;startSize=8;endSize=8;" edge="1" parent="1" source="AeF4JRrVKu4U9kHUNlpQ-12">
          <mxGeometry relative="1" as="geometry">
            <mxPoint x="78" y="537.2000122070312" as="targetPoint" />
          </mxGeometry>
        </mxCell>
        <mxCell id="AeF4JRrVKu4U9kHUNlpQ-12" value="Hiển thị: danh sách chuyến bay&lt;div&gt;output: màn hình&amp;nbsp;&lt;/div&gt;" style="shape=parallelogram;perimeter=parallelogramPerimeter;whiteSpace=wrap;html=1;fixedSize=1;" vertex="1" parent="1">
          <mxGeometry x="7" y="433" width="142" height="65" as="geometry" />
        </mxCell>
        <mxCell id="AeF4JRrVKu4U9kHUNlpQ-13" value="Hiển thị : Không tìm thấy chuyến bay&lt;div&gt;output: màn hình&lt;/div&gt;" style="shape=parallelogram;perimeter=parallelogramPerimeter;whiteSpace=wrap;html=1;fixedSize=1;" vertex="1" parent="1">
          <mxGeometry x="250" y="433" width="166" height="64" as="geometry" />
        </mxCell>
        <mxCell id="AeF4JRrVKu4U9kHUNlpQ-17" value="" style="edgeStyle=none;curved=1;rounded=0;orthogonalLoop=1;jettySize=auto;html=1;fontSize=12;startSize=8;endSize=8;" edge="1" parent="1" source="AeF4JRrVKu4U9kHUNlpQ-15">
          <mxGeometry relative="1" as="geometry">
            <mxPoint x="82" y="662" as="targetPoint" />
            <Array as="points">
              <mxPoint x="82" y="653" />
            </Array>
          </mxGeometry>
        </mxCell>
        <mxCell id="AeF4JRrVKu4U9kHUNlpQ-15" value="Khách hàng chọn chuyến bay&lt;div&gt;input: chuột, màn hình&lt;/div&gt;" style="shape=parallelogram;perimeter=parallelogramPerimeter;whiteSpace=wrap;html=1;fixedSize=1;" vertex="1" parent="1">
          <mxGeometry x="7" y="538" width="150" height="60" as="geometry" />
        </mxCell>
        <mxCell id="AeF4JRrVKu4U9kHUNlpQ-18" value="Nhập thông tin khách hàng và thanh toán&lt;div&gt;input: bàn phím, online banking&lt;/div&gt;" style="shape=parallelogram;perimeter=parallelogramPerimeter;whiteSpace=wrap;html=1;fixedSize=1;" vertex="1" parent="1">
          <mxGeometry x="-21" y="660" width="219" height="62" as="geometry" />
        </mxCell>
        <mxCell id="AeF4JRrVKu4U9kHUNlpQ-21" style="edgeStyle=none;curved=1;rounded=0;orthogonalLoop=1;jettySize=auto;html=1;fontSize=12;startSize=8;endSize=8;" edge="1" parent="1" source="AeF4JRrVKu4U9kHUNlpQ-19">
          <mxGeometry relative="1" as="geometry">
            <mxPoint x="-21.79998779296875" y="904.4000244140625" as="targetPoint" />
          </mxGeometry>
        </mxCell>
        <mxCell id="AeF4JRrVKu4U9kHUNlpQ-23" style="edgeStyle=none;curved=1;rounded=0;orthogonalLoop=1;jettySize=auto;html=1;exitX=0.75;exitY=1;exitDx=0;exitDy=0;fontSize=12;startSize=8;endSize=8;entryX=0.56;entryY=0;entryDx=0;entryDy=0;entryPerimeter=0;" edge="1" parent="1" source="AeF4JRrVKu4U9kHUNlpQ-19" target="AeF4JRrVKu4U9kHUNlpQ-27">
          <mxGeometry relative="1" as="geometry">
            <mxPoint x="181.4000244140625" y="898.0000610351562" as="targetPoint" />
            <Array as="points">
              <mxPoint x="170" y="896" />
            </Array>
          </mxGeometry>
        </mxCell>
        <mxCell id="AeF4JRrVKu4U9kHUNlpQ-19" value="Xử lý thanh toán và xác&amp;nbsp;&lt;div&gt;(phần mềm thanh toán)&lt;/div&gt;" style="rounded=0;whiteSpace=wrap;html=1;" vertex="1" parent="1">
          <mxGeometry x="22" y="765" width="120" height="60" as="geometry" />
        </mxCell>
        <mxCell id="AeF4JRrVKu4U9kHUNlpQ-20" style="edgeStyle=none;curved=1;rounded=0;orthogonalLoop=1;jettySize=auto;html=1;entryX=0.562;entryY=0.043;entryDx=0;entryDy=0;entryPerimeter=0;fontSize=12;startSize=8;endSize=8;" edge="1" parent="1" source="AeF4JRrVKu4U9kHUNlpQ-18" target="AeF4JRrVKu4U9kHUNlpQ-19">
          <mxGeometry relative="1" as="geometry" />
        </mxCell>
        <mxCell id="AeF4JRrVKu4U9kHUNlpQ-24" value="có" style="text;html=1;align=center;verticalAlign=middle;resizable=0;points=[];autosize=1;strokeColor=none;fillColor=none;fontSize=16;" vertex="1" parent="1">
          <mxGeometry x="-11.5" y="833.5" width="35" height="31" as="geometry" />
        </mxCell>
        <mxCell id="AeF4JRrVKu4U9kHUNlpQ-25" value="Không" style="text;html=1;align=center;verticalAlign=middle;resizable=0;points=[];autosize=1;strokeColor=none;fillColor=none;fontSize=16;" vertex="1" parent="1">
          <mxGeometry x="138" y="833.5" width="64" height="31" as="geometry" />
        </mxCell>
        <mxCell id="AeF4JRrVKu4U9kHUNlpQ-30" value="" style="edgeStyle=none;curved=1;rounded=0;orthogonalLoop=1;jettySize=auto;html=1;fontSize=12;startSize=8;endSize=8;" edge="1" parent="1" source="AeF4JRrVKu4U9kHUNlpQ-26" target="AeF4JRrVKu4U9kHUNlpQ-29">
          <mxGeometry relative="1" as="geometry" />
        </mxCell>
        <mxCell id="AeF4JRrVKu4U9kHUNlpQ-26" value="Xuất vé điện tử&lt;div&gt;output: email, màn hình, máy in&lt;br&gt;&lt;div&gt;&lt;br&gt;&lt;/div&gt;&lt;/div&gt;" style="shape=parallelogram;perimeter=parallelogramPerimeter;whiteSpace=wrap;html=1;fixedSize=1;" vertex="1" parent="1">
          <mxGeometry x="-98" y="906" width="134" height="66" as="geometry" />
        </mxCell>
        <mxCell id="AeF4JRrVKu4U9kHUNlpQ-27" value="Thông báo lỗi giao dịch&lt;div&gt;output: email, màn hình&amp;nbsp;&lt;/div&gt;" style="shape=parallelogram;perimeter=parallelogramPerimeter;whiteSpace=wrap;html=1;fixedSize=1;" vertex="1" parent="1">
          <mxGeometry x="107" y="906" width="149" height="60" as="geometry" />
        </mxCell>
        <mxCell id="AeF4JRrVKu4U9kHUNlpQ-29" value="Kết thúc" style="ellipse;whiteSpace=wrap;html=1;" vertex="1" parent="1">
          <mxGeometry x="-71" y="1021" width="80" height="55" as="geometry" />
        </mxCell>
      </root>
    </mxGraphModel>
  </diagram>
</mxfile>
